<?xml version="1.0" encoding="UTF-8"?>
<svg width="21px" height="20px" viewBox="0 0 21 20" version="1.1" xmlns="http://www.w3.org/2000/svg" xmlns:xlink="http://www.w3.org/1999/xlink">
    <title>healthmate-icon</title>
    <g id="high-fed-v1" stroke="none" stroke-width="1" fill="none" fill-rule="evenodd">
        <g id="health-mate---full-scroll-" transform="translate(-79, -418)" fill="#8188B7" fill-rule="nonzero">
            <g id="Group-2" transform="translate(65, 411)">
                <path d="M24.0142425,7 C22.909673,7 22.0142425,7.8954305 22.0142425,9 C22.0148074,9.71396592 22.3959295,10.373486 23.0142425,10.7304688 L23.0142425,13 L20.0142425,13 C17.8052425,13 16.0142425,14.791 16.0142425,17 L16.0142425,21 L15.0142425,21 C14.6536066,20.9948997 14.3181611,21.1843753 14.1363548,21.4958728 C13.9545484,21.8073704 13.9545484,22.1926296 14.1363548,22.5041272 C14.3181611,22.8156247 14.6536066,23.0051003 15.0142425,23 L16.0142425,23 L16.0142425,25 C16.0142425,26.105 16.9092425,27 18.0142425,27 L30.0142425,27 C31.1192425,27 32.0142425,26.105 32.0142425,25 L32.0142425,23 L33.0142425,23 C33.3748784,23.0051003 33.7103239,22.8156247 33.8921302,22.5041272 C34.0739366,22.1926296 34.0739366,21.8073704 33.8921302,21.4958728 C33.7103239,21.1843753 33.3748784,20.9948997 33.0142425,21 L32.0142425,21 L32.0142425,17 C32.0142425,14.791 30.2232425,13 28.0142425,13 L25.0142425,13 L25.0142425,10.7285156 C25.6319522,10.3718822 26.0129811,9.71326785 26.0142425,9 C26.0142425,7.8954305 25.118812,7 24.0142425,7 Z M20.5142425,17 C21.3422425,17 22.0142425,17.672 22.0142425,18.5 C22.0142425,19.328 21.3422425,20 20.5142425,20 C19.6862425,20 19.0142425,19.328 19.0142425,18.5 C19.0142425,17.672 19.6862425,17 20.5142425,17 Z M27.5142425,17 C28.3422425,17 29.0142425,17.672 29.0142425,18.5 C29.0142425,19.328 28.3422425,20 27.5142425,20 C26.6862425,20 26.0142425,19.328 26.0142425,18.5 C26.0142425,17.672 26.6862425,17 27.5142425,17 Z" id="healthmate-icon"></path>
            </g>
        </g>
    </g>
</svg>